# xmcd
#
# Track frame offsets:
#	150
#	10077
#	19215
#	29247
#	40492
#	50027
#	60477
#	71265
#	82840
#	95477
#
# Disc length: 1425 seconds
#
# Revision: 0
# Processed by: cddbd v1.5.1PL0 Copyright (c) Steve Scherf et al.
# Submitted via: audiograbber 1.83.01
#
DISCID=7e058f0a
DTITLE=Tams and Impressions - The Tams and Impressions Greates Hits
DYEAR=1900
DGENRE=
TTITLE0=The Tams - Untie Me
TTITLE1=The Tams - What Kind of Fool (Do You Think I Am?)
TTITLE2=The Tams - You Lied to Your Daddy
TTITLE3=The Tams - Hey Girl Don't Bother Me
TTITLE4=The Tams - Be Young, Be Foolish, Be Happy
TTITLE5=The Impressions - Gypsy Woman
TTITLE6=The Impressions - We're A Winner
TTITLE7=The Impressions - Keep On Pushing
TTITLE8=The Impressions - It's All Right
TTITLE9=The Impressions - Talking About My Baby
EXTD=
EXTT0=
EXTT1=
EXTT2=
EXTT3=
EXTT4=
EXTT5=
EXTT6=
EXTT7=
EXTT8=
EXTT9=
PLAYORDER=
